<?xml version="1.0" encoding="UTF-8" standalone="no"?>
<!DOCTYPE svg PUBLIC "-//W3C//DTD SVG 1.0//EN" "http://www.w3.org/TR/2001/REC-SVG-20010904/DTD/svg10.dtd">
<svg xmlns="http://www.w3.org/2000/svg" xmlns:xlink="http://www.w3.org/1999/xlink" fill-rule="evenodd" height="4.882in" preserveAspectRatio="none" stroke-linecap="round" viewBox="0 0 824 469" width="8.583in">
<style type="text/css">
.brush0 { fill: rgb(255,255,255); }
.pen0 { stroke: rgb(0,0,0); stroke-width: 1; stroke-linejoin: round; }
.font0 { font-size: 10px; font-family: Helvetica; }
.brush1 { fill: rgb(252,242,227); }
.brush2 { fill: rgb(254,230,230); }
.font1 { font-weight: bold; font-size: 10px; font-family: Helvetica; }
.font2 { font-style: italic; font-weight: bold; font-size: 7px; font-family: Helvetica; }
.font3 { font-style: italic; font-size: 7px; font-family: Helvetica; }
.font4 { font-weight: bold; font-size: 16px; font-family: Helvetica; }
</style>
<g>
<path class="pen0 brush2" d="M 785,245  L 784,243 783,242 781,242 777,242 774,242 769,242 763,242 755,242 744,242 730,242 705,242 679,242 675,243 674,243 674,244 674,246 674,250 674,253 674,258 675,264 675,271 675,285 676,299 675,299 676,300 678,300 682,300 686,300 690,300 696,300 704,300 715,300 729,300 755,300 781,301 783,301 783,301 783,300 783,298 783,294 783,291 783,286 784,280 784,273 784,259 785,245 z"/>
<text class="font2" fill="rgb(0,0,0)" stroke="none" style="dominant-baseline: text-before-edge;" x="680 687 693 698 704 708 718 724 729 735 741 746 751 756" xml:space="preserve" y="251">Data Warehouse</text>
<path class="pen0 brush2" d="M 780,248  L 778,248 776,248 776,248 774,248 772,248 770,247 769,248 769,250 769,250 769,252 769,255 770,260 770,262 770,264 770,264 770,264 771,264 774,263 778,262 779,262 778,262 778,261 778,259 779,255 779,252 780,248 z"/>
<path class="pen0 brush2" d="M 772,250  L 772,250 772,250 771,249 772,249 772,249 770,249 768,249 768,249 767,250 766,250 767,250 767,250 767,252 766,252 767,252 767,252 766,253 767,253 769,253 772,252 772,253 773,251 773,251 772,250 z"/>
<path class="pen0 brush2" d="M 773,256  L 771,257 771,256 770,256 769,256 766,256 766,256 766,257 766,258 767,258 767,258 765,258 766,258 766,259 766,260 767,260 769,260 771,261 771,260 771,260 772,258 772,258 773,256 z"/>
<path class="pen0 brush2" d="M 566,281  L 565,279 564,278 564,278 560,277 556,277 552,277 546,277 537,277 526,278 512,278 486,278 460,279 458,279 456,280 456,281 456,283 456,287 456,290 456,294 456,300 456,307 456,320 455,334 456,336 457,336 458,337 462,336 466,336 470,336 477,336 485,336 497,337 511,337 537,337 564,336 564,337 564,335 564,333 564,329 564,326 564,321 565,315 565,308 565,295 566,281 z"/>
<text class="font2" fill="rgb(0,0,0)" stroke="none" style="dominant-baseline: text-before-edge;" x="464 470 476 482 485 492 495 503 509 513 520 525 530 535" xml:space="preserve" y="287">RealTime Store</text>
<path class="pen0 brush2" d="M 561,285  L 561,284 559,283 558,283 557,283 556,283 554,283 551,284 551,285 551,285 551,286 551,288 551,291 550,297 550,298 551,298 553,298 554,298 556,298 558,299 559,298 561,298 561,297 561,295 561,292 561,285 z"/>
<path class="pen0 brush2" d="M 553,286  L 553,286 553,286 552,286 551,286 551,286 549,286 547,285 548,285 548,285 548,286 548,287 547,289 548,288 548,288 547,289 548,289 549,289 551,288 552,289 552,288 552,288 552,288 552,288 553,286 z"/>
<path class="pen0 brush2" d="M 553,294  L 553,293 553,293 553,293 552,293 551,292 548,291 548,291 547,292 547,293 546,293 546,293 547,294 547,297 548,297 549,296 552,295 552,295 553,295 553,294 553,294 z"/>
<path class="pen0 brush2" d="M 661,29  L 661,27 659,26 652,25 644,24 639,24 634,24 627,24 619,24 609,24 598,24 585,24 570,24 553,25 534,25 512,26 488,26 403,28 316,26 313,27 311,30 311,33 310,36 310,41 310,48 310,58 310,71 311,79 311,88 311,98 311,109 312,148 311,188 312,188 313,188 314,189 314,188 321,189 329,190 334,190 340,190 346,190 355,190 364,190 375,190 388,190 403,190 420,189 440,189 462,189 486,188 572,187 615,187 659,189 662,188 662,187 662,184 661,181 661,176 661,169 661,160 661,147 662,139 662,130 662,120 662,109 663,70 661,29 z"/>
<text class="font2" fill="rgb(0,0,0)" stroke="none" style="dominant-baseline: text-before-edge;" x="438 444 451 457 461 470 473 479 485 488 494 501 507 512" xml:space="preserve" y="36">ETL Middleware</text>
<path class="pen0 brush2" d="M 656,33  L 656,32 656,32 656,32 655,32 653,32 650,33 648,32 647,33 646,35 646,36 646,38 647,41 648,47 647,48 647,48 648,48 648,48 649,48 652,48 656,49 656,48 657,47 658,46 658,45 658,44 658,42 657,39 656,33 z"/>
<path class="pen0 brush2" d="M 649,34  L 649,34 649,35 649,35 647,35 645,34 644,34 644,34 643,35 643,35 645,37 645,38 645,38 644,38 645,38 646,38 648,37 650,37 650,37 649,38 649,38 649,36 649,34 z"/>
<path class="pen0 brush2" d="M 650,41  L 650,41 650,42 648,42 648,42 646,41 645,41 645,41 645,41 645,41 645,41 644,43 644,44 645,44 646,44 646,44 648,44 649,45 649,45 650,44 650,44 650,43 650,41 z"/>
<path class="pen0 brush2" d="M 123,108  L 123,108 123,107 123,106 122,106 118,106 115,106 110,106 104,106 96,106 85,106 71,106 45,106 19,107 17,107 16,107 15,108 15,108 15,110 15,114 15,117 15,122 15,128 15,135 15,149 16,164 15,165 15,166 17,166 19,167 23,167 27,167 31,167 37,167 45,167 56,166 70,166 95,166 121,165 123,166 124,166 125,163 125,161 125,157 125,154 125,149 124,143 124,136 124,122 123,108 z"/>
<text class="font2" fill="rgb(0,0,0)" stroke="none" style="dominant-baseline: text-before-edge;" x="17 23 29 37 42 47 53 57 64 70 75 81 87 93 98" xml:space="preserve" y="116">Remote Database</text>
<text class="font3" fill="rgb(0,0,0)" stroke="none" style="dominant-baseline: text-before-edge;" x="96 100 105 107 109 114" xml:space="preserve" y="129">{1..*}</text>
<path class="pen0 brush2" d="M 119,114  L 118,113 116,112 116,112 114,112 112,113 111,112 110,113 109,114 109,115 109,116 109,118 109,121 108,126 108,127 109,128 110,128 110,128 110,128 111,128 113,128 117,128 119,127 120,125 120,124 120,123 120,119 119,114 z"/>
<path class="pen0 brush2" d="M 113,114  L 112,115 112,115 112,114 111,114 109,114 106,113 107,114 105,115 105,115 105,116 105,118 107,118 108,117 108,117 110,117 110,117 111,117 112,116 112,116 113,114 z"/>
<path class="pen0 brush2" d="M 111,122  L 111,121 111,120 111,120 110,120 108,120 107,121 107,122 107,123 107,123 107,123 106,123 106,124 108,126 108,126 110,125 110,125 111,125 112,125 112,125 112,125 112,124 111,122 z"/>
<path class="pen0 brush2" d="M 381,278  L 382,278 382,277 381,277 379,278 375,278 372,278 367,278 361,278 353,278 342,278 328,278 303,278 277,278 275,278 274,278 273,279 272,279 272,281 272,285 272,288 272,293 273,299 273,306 273,320 274,334 273,334 273,335 275,335 277,335 281,335 285,335 289,335 295,335 303,335 314,335 328,335 353,335 379,335 381,335 381,334 381,333 381,331 381,327 381,324 381,319 381,313 381,306 381,292 381,278 z"/>
<text class="font2" fill="rgb(0,0,0)" stroke="none" style="dominant-baseline: text-before-edge;" x="282 288 291 297 302 307 310 315 320 326 332 337 342 348" xml:space="preserve" y="286">Elasticsearch </text>
<text class="font2" fill="rgb(0,0,0)" stroke="none" style="dominant-baseline: text-before-edge;" x="300 306 309 314 319 324 330" xml:space="preserve" y="299">Cluster</text>
<path class="pen0 brush2" d="M 378,285  L 377,282 375,281 375,281 374,281 372,281 368,282 368,283 368,283 368,284 368,284 368,285 368,287 368,291 367,297 367,297 368,298 369,299 370,299 371,299 372,299 374,299 376,298 377,298 378,296 378,295 378,294 378,290 378,285 z"/>
<path class="pen0 brush2" d="M 371,284  L 371,284 370,284 369,284 368,284 368,284 367,284 365,283 364,284 363,284 363,285 363,286 364,288 364,288 364,288 365,288 367,288 369,289 370,288 370,287 370,287 370,287 370,286 371,284 z"/>
<path class="pen0 brush2" d="M 369,293  L 370,291 370,291 369,291 367,291 364,290 365,290 365,291 364,292 363,291 363,291 364,292 365,294 365,294 365,294 365,294 365,295 365,295 366,295 368,295 369,295 370,293 370,293 369,293 z"/>
<path class="pen0 brush2" d="M 769,380  L 769,379 768,379 764,379 761,379 756,379 750,379 742,379 731,379 717,379 691,379 665,379 662,380 661,380 661,382 661,384 661,388 661,391 661,395 661,401 661,408 661,421 661,435 663,438 663,438 664,437 668,438 672,438 676,438 682,438 691,438 702,437 716,437 742,437 768,437 769,437 771,437 771,435 771,431 771,427 771,423 770,417 770,409 770,395 769,380 z"/>
<text class="font2" fill="rgb(0,0,0)" stroke="none" style="dominant-baseline: text-before-edge;" x="669 676 682 690 693 698 701 706 711 716 722 727 730 735 740" xml:space="preserve" y="388">Administration </text>
<text class="font2" fill="rgb(0,0,0)" stroke="none" style="dominant-baseline: text-before-edge;" x="691 696 701 706 711 717" xml:space="preserve" y="401">Portal</text>
<path class="pen0 brush2" d="M 766,385  L 764,384 764,384 764,383 764,383 763,383 760,383 756,384 755,384 754,387 754,388 754,389 755,392 756,397 756,399 756,399 756,399 756,399 757,399 760,399 764,399 765,399 766,399 766,398 766,396 766,392 766,389 766,385 z"/>
<path class="pen0 brush2" d="M 758,388  L 758,387 757,385 757,385 756,385 754,385 753,385 753,386 752,387 751,387 751,387 751,388 753,389 754,390 754,390 755,390 757,391 757,390 757,390 759,389 759,389 758,388 z"/>
<path class="pen0 brush2" d="M 759,394  L 759,393 758,393 757,393 757,394 757,394 755,394 753,394 752,393 752,393 752,394 753,395 753,395 751,396 752,396 752,396 752,398 753,398 755,398 757,398 758,397 758,396 758,396 759,394 z"/>
<path class="pen0 brush2" d="M 525,396  L 525,395 522,393 518,393 515,393 510,393 504,393 496,393 485,394 471,394 446,394 420,395 418,395 417,395 415,395 415,397 415,401 415,405 415,409 416,415 416,423 416,437 417,451 417,452 417,453 417,454 419,454 423,454 427,454 431,454 437,454 445,454 456,454 470,454 496,453 522,452 524,453 525,453 526,452 526,450 526,446 526,443 526,438 526,432 526,425 526,411 525,396 z"/>
<text class="font2" fill="rgb(0,0,0)" stroke="none" style="dominant-baseline: text-before-edge;" x="421 427 432 437 442 447 455 461 466 470 475 480 485 490 496" xml:space="preserve" y="403">Customer Portal</text>
<path class="pen0 brush2" d="M 519,402  L 520,400 520,400 519,400 519,400 518,400 516,399 512,398 511,399 511,400 510,400 509,400 509,401 509,403 509,407 510,413 511,415 513,416 514,416 516,416 518,415 520,415 521,412 521,411 521,410 520,407 519,402 z"/>
<path class="pen0 brush2" d="M 512,403  L 512,403 512,402 512,401 513,402 512,402 511,402 508,402 508,401 508,402 507,402 506,402 506,402 506,403 507,405 507,404 507,405 508,405 509,405 510,405 511,405 513,406 513,405 513,404 514,404 514,405 514,405 512,403 z"/>
<path class="pen0 brush2" d="M 514,410  L 513,409 513,408 513,407 512,407 511,408 508,409 508,408 507,408 506,409 506,409 507,411 508,412 508,412 507,412 508,412 510,412 512,413 513,412 513,412 513,412 514,410 z"/>
<path class="pen0 brush2" d="M 269,391  L 269,390 267,388 263,389 259,389 255,389 249,389 240,389 229,388 215,388 189,388 162,388 161,389 161,390 161,390 161,391 161,393 161,397 161,400 161,405 161,411 161,418 161,431 160,445 160,447 160,448 162,447 166,448 170,448 174,448 180,448 189,448 200,448 214,448 240,448 267,449 269,447 269,446 268,446 268,444 268,440 268,437 268,432 268,426 268,419 268,405 269,391 z"/>
<text class="font2" fill="rgb(0,0,0)" stroke="none" style="dominant-baseline: text-before-edge;" x="165 172 177 182 185 190 196 200 207 210 215 221 226 231 236 241" xml:space="preserve" y="398">Active Directory</text>
<text class="font3" fill="rgb(0,0,0)" stroke="none" style="dominant-baseline: text-before-edge;" x="241 245 250 252 254 259" xml:space="preserve" y="411">{1..*}</text>
<path class="pen0 brush2" d="M 264,396  L 264,395 264,395 262,394 261,393 260,393 258,393 255,393 254,395 254,396 255,396 255,397 255,399 255,403 254,409 254,409 255,410 256,410 256,410 257,410 259,410 261,409 263,410 264,410 265,408 265,407 265,405 265,402 264,396 z"/>
<path class="pen0 brush2" d="M 256,397  L 256,396 256,396 255,397 255,397 253,397 251,396 250,397 250,397 250,398 251,399 252,399 253,399 253,399 255,399 256,400 256,400 256,398 256,398 256,397 z"/>
<path class="pen0 brush2" d="M 257,403  L 256,403 255,402 255,402 253,403 251,404 250,403 250,404 251,405 252,407 252,406 251,406 252,406 253,407 255,408 256,407 257,407 257,407 257,407 257,405 257,403 z"/>
<path class="pen0 brush2" d="M 808,25  L 808,25 808,24 807,24 806,24 802,24 799,24 794,24 788,24 780,24 769,24 755,24 729,24 703,23 701,23 700,23 699,24 698,24 698,26 698,30 698,33 698,38 698,44 698,51 698,65 699,79 700,81 701,83 705,82 709,82 713,82 719,82 728,82 739,82 753,82 779,82 806,81 808,81 808,80 808,78 808,74 808,71 808,66 808,60 808,53 808,39 808,25 z"/>
<text class="font2" fill="rgb(0,0,0)" stroke="none" style="dominant-baseline: text-before-edge;" x="708 715 720 725 730 738 744 749 755 761 769 774" xml:space="preserve" y="32">AutomatedOps</text>
<path class="pen0 brush2" d="M 804,31  L 803,29 801,27 800,27 799,28 796,29 794,29 793,29 792,31 792,32 792,33 792,36 792,41 794,43 796,43 797,43 799,43 802,44 803,44 804,42 804,41 804,40 804,36 804,31 z"/>
<path class="pen0 brush2" d="M 797,31  L 795,30 795,30 795,30 794,30 793,30 790,30 790,30 789,31 789,31 789,32 789,34 790,34 791,34 792,34 792,33 792,33 794,33 796,33 796,33 795,33 795,33 797,31 z"/>
<path class="pen0 brush2" d="M 796,39  L 796,38 796,38 795,37 795,37 794,37 792,37 791,37 791,37 790,38 790,38 790,39 791,41 791,40 791,40 792,40 792,40 794,40 795,40 796,39 796,39 z"/>
<path class="pen0 brush2" d="M 128,260  L 128,259 127,257 123,258 119,258 115,258 108,258 100,258 88,257 74,257 48,257 21,258 20,257 20,258 19,259 18,259 18,261 18,265 18,268 18,273 18,279 18,286 18,300 19,315 20,316 21,317 23,317 27,317 31,317 35,317 41,317 49,317 60,317 74,317 100,317 126,317 127,316 129,313 129,311 129,307 129,304 129,300 129,294 129,287 129,274 128,260 z"/>
<text class="font2" fill="rgb(0,0,0)" stroke="none" style="dominant-baseline: text-before-edge;" x="35 41 47 52 58 63 69 73 80 85" xml:space="preserve" y="266">Legacy App</text>
<path class="pen0 brush2" d="M 124,263  L 124,263 123,263 122,262 122,263 122,263 121,263 119,262 115,261 114,262 113,263 113,264 113,266 113,270 113,276 113,277 115,278 116,278 118,278 120,279 121,279 122,278 122,277 123,277 123,276 123,274 123,270 124,267 124,263 z"/>
<path class="pen0 brush2" d="M 116,264  L 115,265 115,264 115,264 114,264 114,264 113,264 111,264 111,264 111,264 109,265 109,265 111,266 110,267 111,267 111,267 111,267 112,267 113,267 115,267 116,268 116,268 116,268 116,266 116,264 z"/>
<path class="pen0 brush2" d="M 115,271  L 115,272 114,272 114,272 112,271 110,270 110,271 110,271 109,271 109,272 109,273 109,275 110,275 111,275 111,276 111,276 112,275 114,274 115,275 116,274 116,274 116,274 116,274 116,273 115,271 z"/>
<path class="pen0 brush2" d="M 259,17  L 258,16 256,15 252,15 249,15 244,15 238,15 230,15 219,15 205,15 179,15 153,15 151,15 150,15 149,18 149,20 149,24 149,27 149,32 149,38 149,45 149,58 149,72 151,73 152,73 156,72 160,72 164,72 170,73 179,73 190,73 204,74 230,74 256,75 257,74 257,73 257,71 257,69 257,65 257,62 257,57 258,51 258,44 258,31 259,17 z"/>
<text class="font2" fill="rgb(0,0,0)" stroke="none" style="dominant-baseline: text-before-edge;" x="168 175 181 184 189 195 200 206 211 216 222" xml:space="preserve" y="24">ThirdParty </text>
<text class="font2" fill="rgb(0,0,0)" stroke="none" style="dominant-baseline: text-before-edge;" x="176 183 189 194 199 205" xml:space="preserve" y="37">System</text>
<path class="pen0 brush2" d="M 253,22  L 252,21 251,21 250,21 249,21 247,21 244,21 244,21 244,21 244,22 244,23 244,25 244,28 244,33 244,36 244,37 244,37 245,37 248,36 252,35 252,35 252,35 253,33 253,32 253,31 253,27 253,22 z"/>
<path class="pen0 brush2" d="M 246,22  L 246,22 245,21 245,21 244,21 242,21 241,22 241,23 240,23 240,23 240,24 239,26 239,25 240,26 240,26 241,25 242,25 243,25 245,25 245,26 246,26 246,25 246,24 246,24 246,22 z"/>
<path class="pen0 brush2" d="M 246,30  L 246,29 245,28 245,28 243,28 241,28 241,29 240,30 240,30 240,32 241,32 241,32 242,32 243,32 245,33 245,33 246,32 246,31 246,31 246,31 246,30 z"/>
<path class="pen0 brush2" d="M 454,80  L 452,78 452,77 452,76 448,77 444,77 440,77 434,77 425,77 414,76 400,76 374,77 346,78 344,78 343,78 343,80 343,84 343,87 343,92 343,98 343,105 343,119 344,134 345,136 347,137 351,138 355,138 359,138 365,138 374,138 385,137 399,137 425,137 452,137 452,136 452,135 452,133 452,129 452,126 452,121 453,115 453,108 453,94 454,80 z"/>
<text class="font2" fill="rgb(0,0,0)" stroke="none" style="dominant-baseline: text-before-edge;" x="360 369 375 380 385 391 396 399 404 409" xml:space="preserve" y="86">Messaging </text>
<text class="font2" fill="rgb(0,0,0)" stroke="none" style="dominant-baseline: text-before-edge;" x="371 377 380 385 390 395 401" xml:space="preserve" y="99">Cluster</text>
<path class="pen0 brush2" d="M 449,83  L 448,82 447,82 446,83 445,83 444,83 441,83 439,83 438,83 438,83 437,85 437,86 437,88 437,91 437,96 438,97 439,98 439,98 441,99 442,99 444,99 446,99 447,97 448,95 448,94 448,92 448,89 449,83 z"/>
<path class="pen0 brush2" d="M 440,84  L 440,84 440,84 440,83 439,83 438,83 435,83 436,84 435,85 434,85 434,85 434,85 436,86 435,86 436,87 436,87 436,87 437,87 438,87 440,87 440,88 441,87 441,87 442,87 442,87 441,86 440,84 z"/>
<path class="pen0 brush2" d="M 440,91  L 441,92 440,92 439,92 439,91 439,91 438,91 436,90 436,90 436,91 436,91 436,91 436,91 436,92 435,94 435,94 436,96 437,96 438,96 440,95 440,95 441,95 441,94 441,94 441,94 441,93 440,91 z"/>
<path class="pen0 brush2" d="M 640,90  L 639,90 638,90 636,88 632,89 628,89 624,89 618,89 609,89 598,88 584,88 558,88 532,89 531,90 530,91 530,93 530,97 530,100 530,105 530,111 530,118 530,131 529,145 530,147 531,147 532,148 536,147 540,147 544,147 551,147 559,147 571,148 585,148 611,148 638,149 638,148 639,147 639,146 639,146 639,144 639,140 639,137 639,132 639,126 639,119 639,105 640,90 z"/>
<text class="font2" fill="rgb(0,0,0)" stroke="none" style="dominant-baseline: text-before-edge;" x="557 567 572 577 582 588" xml:space="preserve" y="98">Worker</text>
<text class="font3" fill="rgb(0,0,0)" stroke="none" style="dominant-baseline: text-before-edge;" x="611 615 620 622 624 629" xml:space="preserve" y="111">{1..*}</text>
<path class="pen0 brush2" d="M 633,97  L 634,96 633,95 633,95 633,94 633,94 632,94 630,94 626,94 626,94 625,95 624,95 624,95 624,96 624,98 624,102 624,105 624,109 625,109 625,109 625,109 625,109 626,109 628,109 631,109 633,110 634,110 634,109 634,108 634,106 634,103 633,97 z"/>
<path class="pen0 brush2" d="M 626,98  L 627,97 627,97 627,97 626,97 625,96 622,95 622,95 622,96 621,97 620,97 620,97 620,98 620,100 621,100 621,100 621,99 622,99 624,99 627,99 627,99 627,99 628,100 628,100 626,98 z"/>
<path class="pen0 brush2" d="M 626,104  L 627,104 627,104 626,103 626,103 625,103 623,102 622,103 622,104 621,104 620,105 620,105 622,106 622,107 623,107 623,107 625,108 626,108 627,107 627,107 627,106 626,104 z"/>
<path class="pen0 brush2" d="M 267,193  L 266,192 266,191 265,191 261,192 257,192 253,192 246,192 238,192 226,191 212,191 186,191 159,191 156,191 156,193 156,197 156,201 156,205 156,211 156,219 156,233 156,248 157,248 158,249 159,250 159,250 163,251 167,251 171,251 178,251 186,251 198,250 212,250 238,250 265,249 265,248 265,248 267,246 267,244 267,240 267,237 267,233 267,227 267,220 267,207 267,193 z"/>
<text class="font2" fill="rgb(0,0,0)" stroke="none" style="dominant-baseline: text-before-edge;" x="188 195 200 206 211" xml:space="preserve" y="199">Agent</text>
<text class="font3" fill="rgb(0,0,0)" stroke="none" style="dominant-baseline: text-before-edge;" x="238 242 247 249 251 256" xml:space="preserve" y="212">{1..*}</text>
<path class="pen0 brush2" d="M 260,196  L 260,196 260,195 258,195 258,195 256,195 254,195 252,196 252,197 252,198 252,200 252,203 252,208 251,210 252,211 254,211 255,211 257,211 260,211 260,210 261,210 261,210 261,210 261,209 261,207 261,203 260,200 260,196 z"/>
<path class="pen0 brush2" d="M 255,199  L 254,198 254,197 253,197 252,198 252,198 250,198 248,198 248,198 248,198 248,200 249,201 249,201 249,200 249,200 250,201 252,202 254,200 253,199 253,199 255,199 z"/>
<path class="pen0 brush2" d="M 255,206  L 253,205 254,205 253,205 251,205 248,205 248,205 248,204 248,204 248,205 249,207 248,207 250,209 250,209 252,209 253,209 253,209 254,208 254,208 255,206 z"/>
<polyline class="pen0" fill="none" points="270,420 270,420 271,420 274,420 278,420"/>
<polyline class="pen0" fill="none" points="280,420 280,420 281,420 284,420 288,419"/>
<polyline class="pen0" fill="none" points="292,421 293,421 295,421 298,420"/>
<polyline class="pen0" fill="none" points="302,420 302,420 303,420 306,420 310,420"/>
<polyline class="pen0" fill="none" points="315,420 316,420 318,420 320,420"/>
<polyline class="pen0" fill="none" points="325,420 326,420 328,420 331,420"/>
<polyline class="pen0" fill="none" points="336,421 337,421 339,421 342,420"/>
<polyline class="pen0" fill="none" points="346,421 346,421 347,421 349,421 353,421"/>
<polyline class="pen0" fill="none" points="359,421 360,421 362,421 365,420"/>
<polyline class="pen0" fill="none" points="368,420 368,420 369,420 371,420 375,421"/>
<polyline class="pen0" fill="none" points="381,420 381,420 382,420 384,421 388,422"/>
<polyline class="pen0" fill="none" points="390,420 390,420 391,420 394,420 398,421"/>
<polyline class="pen0" fill="none" points="401,422 401,422 403,422 405,421 410,420"/>
<polyline class="pen0" fill="none" points="414,422 414,422 415,422 417,423"/>
<polyline class="pen0" fill="none" points="270,420 271,420 274,419 278,417 282,416 286,414"/>
<polyline class="pen0" fill="none" points="269,419 270,419 273,420 278,422 281,424 286,426"/>
<polyline class="pen0" fill="none" points="267,197 267,197 268,197 271,196 275,194"/>
<polyline class="pen0" fill="none" points="277,192 277,192 278,192 281,191 285,190"/>
<polyline class="pen0" fill="none" points="288,188 288,188 289,188 292,187 296,185"/>
<polyline class="pen0" fill="none" points="301,185 302,184 304,183 306,180"/>
<polyline class="pen0" fill="none" points="310,179 310,179 311,179"/>
<polyline class="pen0" fill="none" points="267,196 268,196 270,195 273,192 278,187"/>
<polyline class="pen0" fill="none" points="268,198 269,198 271,198 275,198 278,197 282,197"/>
<polyline class="pen0" fill="none" points="351,278 351,278 352,277 354,274 357,269"/>
<polyline class="pen0" fill="none" points="358,265 358,265 359,264 362,262 366,258"/>
<polyline class="pen0" fill="none" points="369,255 369,255 370,254 372,252 374,248"/>
<polyline class="pen0" fill="none" points="376,244 376,244 377,243 379,240 383,236"/>
<polyline class="pen0" fill="none" points="386,234 386,234 387,233 389,230 392,225"/>
<polyline class="pen0" fill="none" points="396,221 397,220 398,218 400,215"/>
<polyline class="pen0" fill="none" points="405,212 405,212 406,211 408,209 410,205"/>
<polyline class="pen0" fill="none" points="411,199 412,198 414,197 417,194"/>
<polyline class="pen0" fill="none" points="352,278 352,277 353,275 354,270 356,263"/>
<polyline class="pen0" fill="none" points="351,278 352,277 354,276 358,273 361,271 365,268"/>
<polyline class="pen0" fill="none" points="686,242 686,242 685,242 682,241 678,239"/>
<polyline class="pen0" fill="none" points="675,236 675,236 674,235 671,233 666,230"/>
<polyline class="pen0" fill="none" points="663,229 663,229 662,228 660,227 656,224"/>
<polyline class="pen0" fill="none" points="651,221 651,221 650,220 648,219 644,216"/>
<polyline class="pen0" fill="none" points="641,212 641,212 640,212 638,211 634,209"/>
<polyline class="pen0" fill="none" points="630,204 630,204 629,204 627,202 623,200"/>
<polyline class="pen0" fill="none" points="618,198 617,197 615,196 612,193"/>
<polyline class="pen0" fill="none" points="686,243 685,243 683,242 679,241 675,240 671,238"/>
<polyline class="pen0" fill="none" points="685,242 684,241 683,239 680,235 678,232 675,228"/>
<polyline class="pen0" fill="none" points="508,279 508,279 508,278 508,275 508,270"/>
<polyline class="pen0" fill="none" points="507,266 507,266 507,265 506,263 504,259"/>
<polyline class="pen0" fill="none" points="504,255 504,255 504,254 504,252 503,248"/>
<polyline class="pen0" fill="none" points="503,244 503,243 502,241 501,238"/>
<polyline class="pen0" fill="none" points="501,235 501,235 501,234 501,232 501,228"/>
<polyline class="pen0" fill="none" points="502,222 502,222 502,221 501,219 500,215"/>
<polyline class="pen0" fill="none" points="499,212 499,212 499,211 499,208 498,204"/>
<polyline class="pen0" fill="none" points="497,201 497,201 497,200 497,197 496,193"/>
<polyline class="pen0" fill="none" points="508,277 508,276 507,274 505,271 501,265"/>
<polyline class="pen0" fill="none" points="508,279 508,278 508,275 508,270 509,266 509,261"/>
<polyline class="pen0" fill="none" points="365,338 366,339 368,341 371,343"/>
<polyline class="pen0" fill="none" points="376,346 377,347 379,348 382,350"/>
<polyline class="pen0" fill="none" points="387,354 387,354 388,355 390,357 392,361"/>
<polyline class="pen0" fill="none" points="396,363 396,363 398,364 400,366 405,369"/>
<polyline class="pen0" fill="none" points="407,371 407,371 408,372 411,374 415,377"/>
<polyline class="pen0" fill="none" points="420,382 421,383 423,384 426,386"/>
<polyline class="pen0" fill="none" points="429,390 430,391 431,393 433,395"/>
<polyline class="pen0" fill="none" points="365,336 366,336 368,337 372,340 376,342 380,344"/>
<polyline class="pen0" fill="none" points="364,338 364,339 365,341 367,345 371,351"/>
<polyline class="pen0" fill="none" points="501,339 501,339 501,340 500,342 498,346"/>
<polyline class="pen0" fill="none" points="498,348 498,348 498,349 496,351 494,355"/>
<polyline class="pen0" fill="none" points="493,361 493,361 493,362 492,364 490,368"/>
<polyline class="pen0" fill="none" points="489,372 489,373 488,374 486,377"/>
<polyline class="pen0" fill="none" points="486,383 486,384 485,385 484,388"/>
<polyline class="pen0" fill="none" points="482,392 482,392 482,393"/>
<polyline class="pen0" fill="none" points="500,339 500,340 500,343 500,347 499,351 499,355"/>
<polyline class="pen0" fill="none" points="500,337 499,338 498,340 495,344 490,350"/>
<polyline class="pen0" fill="none" points="677,301 677,301 676,302 674,303 670,305"/>
<polyline class="pen0" fill="none" points="667,309 666,309 664,310 661,311"/>
<polyline class="pen0" fill="none" points="655,313 654,314 653,316 650,319"/>
<polyline class="pen0" fill="none" points="644,321 644,321 643,322 641,324 637,326"/>
<polyline class="pen0" fill="none" points="635,326 635,326 634,327 632,329 628,333"/>
<polyline class="pen0" fill="none" points="624,335 624,335 623,336 620,337 616,339"/>
<polyline class="pen0" fill="none" points="613,339 613,339 612,340 610,342 606,345"/>
<polyline class="pen0" fill="none" points="602,348 602,348 601,349 599,350 595,352"/>
<polyline class="pen0" fill="none" points="590,352 589,353 587,355 584,358"/>
<polyline class="pen0" fill="none" points="578,359 578,359 577,360 575,361 571,363"/>
<polyline class="pen0" fill="none" points="568,367 568,367 567,367 564,368 560,370"/>
<polyline class="pen0" fill="none" points="558,374 558,374 557,374 554,375 549,377"/>
<polyline class="pen0" fill="none" points="545,379 544,380 543,382 540,384"/>
<polyline class="pen0" fill="none" points="534,386 533,386 532,387 529,389"/>
<polyline class="pen0" fill="none" points="525,391 525,391 523,392 521,393"/>
<polyline class="pen0" fill="none" points="679,303 678,304 677,306 673,309 668,314"/>
<polyline class="pen0" fill="none" points="678,302 677,302 675,303 670,304 666,305 662,306"/>
<polyline class="pen0" fill="none" points="725,301 725,301 725,303 725,305 725,310"/>
<polyline class="pen0" fill="none" points="726,313 726,314 726,316 726,319"/>
<polyline class="pen0" fill="none" points="725,324 725,324 725,325 725,328 725,332"/>
<polyline class="pen0" fill="none" points="723,334 723,334 723,335 723,338 724,342"/>
<polyline class="pen0" fill="none" points="721,347 721,348 721,350 721,353"/>
<polyline class="pen0" fill="none" points="720,358 720,358 720,359 721,361 722,365"/>
<polyline class="pen0" fill="none" points="719,367 719,367 719,368 719,370 720,374"/>
<polyline class="pen0" fill="none" points="726,302 726,303 727,305 728,310 730,317"/>
<polyline class="pen0" fill="none" points="725,302 725,303 724,305 722,309 721,312 719,316"/>
<polyline class="pen0" fill="none" points="69,166 69,166 69,167 70,170 71,174"/>
<polyline class="pen0" fill="none" points="71,179 71,180 70,181 69,184"/>
<polyline class="pen0" fill="none" points="71,190 71,191 71,193 70,195"/>
<polyline class="pen0" fill="none" points="70,200 70,200 70,201 71,203 72,207"/>
<polyline class="pen0" fill="none" points="70,210 70,210 70,211 70,213 70,217"/>
<polyline class="pen0" fill="none" points="72,223 72,224 72,226 73,228"/>
<polyline class="pen0" fill="none" points="72,233 72,233 72,234 72,237 72,241"/>
<polyline class="pen0" fill="none" points="73,243 73,243 73,244 72,246 71,250"/>
<polyline class="pen0" fill="none" points="73,254 73,254 73,256"/>
<polyline class="pen0" fill="none" points="70,166 70,167 71,170 73,175 74,178 76,183"/>
<polyline class="pen0" fill="none" points="69,166 69,167 69,170 68,174 67,178 66,182"/>
<polyline class="pen0" fill="none" points="112,106 112,106 113,106 115,104 119,102"/>
<polyline class="pen0" fill="none" points="125,100 126,99 128,97 131,94"/>
<polyline class="pen0" fill="none" points="135,92 136,92 138,90 141,88"/>
<polyline class="pen0" fill="none" points="146,86 146,86 147,85 149,83 153,79"/>
<polyline class="pen0" fill="none" points="158,79 158,79 159,78 161,76"/>
<polyline class="pen0" fill="none" points="114,107 115,106 116,104 119,101 124,95"/>
<polyline class="pen0" fill="none" points="114,107 115,107 117,106 121,105 127,102"/>
<polyline class="pen0" fill="none" points="121,167 121,167 122,168 125,169 129,172"/>
<polyline class="pen0" fill="none" points="132,174 132,174 133,174 136,175 140,176"/>
<polyline class="pen0" fill="none" points="142,179 142,179 143,180 145,181 149,183"/>
<polyline class="pen0" fill="none" points="153,185 153,185 154,186 157,187 161,190"/>
<polyline class="pen0" fill="none" points="122,166 123,166 125,167 129,169 135,171"/>
<polyline class="pen0" fill="none" points="120,168 121,169 123,171 126,174 132,180"/>
</g>
</svg>
