<?xml version="1.0" encoding="UTF-8" standalone="no"?>
<!DOCTYPE svg PUBLIC "-//W3C//DTD SVG 1.0//EN" "http://www.w3.org/TR/2001/REC-SVG-20010904/DTD/svg10.dtd">
<svg xmlns="http://www.w3.org/2000/svg" xmlns:xlink="http://www.w3.org/1999/xlink" fill-rule="evenodd" height="3.601in" preserveAspectRatio="none" stroke-linecap="round" viewBox="0 0 637 346" width="6.635in">
<style type="text/css">
.brush0 { fill: rgb(255,255,255); }
.pen0 { stroke: rgb(0,0,0); stroke-width: 1; stroke-linejoin: round; }
.font0 { font-size: 10px; font-family: Helvetica; }
.brush1 { fill: rgb(252,242,227); }
.brush2 { fill: rgb(254,230,230); }
.font1 { font-weight: bold; font-size: 10px; font-family: Helvetica; }
.font2 { font-style: italic; font-weight: bold; font-size: 7px; font-family: Helvetica; }
.brush3 { fill: rgb(242,230,254); }
.font3 { font-style: italic; font-size: 7px; font-family: Helvetica; }
.font4 { font-weight: bold; font-size: 16px; font-family: Helvetica; }
</style>
<g>
<path class="pen0 brush2" d="M 123,272  L 123,272 122,271 118,272 114,272 110,272 104,272 95,272 84,271 70,271 44,271 18,271 15,271 14,272 14,274 14,278 14,281 14,286 14,292 14,299 14,313 15,328 16,330 17,330 17,330 21,329 25,329 29,329 35,329 44,329 55,330 69,330 95,330 122,331 123,330 124,329 124,327 124,323 124,319 124,315 124,309 124,301 124,287 123,272 z"/>
<text class="font2" fill="rgb(0,0,0)" stroke="none" style="dominant-baseline: text-before-edge;" x="39 45 49 55 63 67 72" xml:space="preserve" y="280">Browser</text>
<path class="pen0 brush2" d="M 118,279  L 119,278 119,277 118,276 117,276 116,276 115,276 112,275 110,276 110,277 109,278 108,279 108,279 108,281 108,284 109,289 109,291 110,293 110,293 111,293 113,293 117,292 119,291 119,289 119,289 119,287 119,284 118,279 z"/>
<path class="pen0 brush2" d="M 112,280  L 112,279 112,279 112,278 112,277 111,277 110,278 107,279 106,279 106,279 107,279 107,279 105,281 106,282 108,283 108,283 110,281 110,282 111,281 111,280 111,280 111,280 112,280 z"/>
<path class="pen0 brush2" d="M 113,286  L 111,285 111,284 111,284 110,284 108,285 107,285 106,287 106,287 105,289 106,288 107,288 108,290 108,290 109,290 111,289 111,289 112,288 113,288 113,287 113,287 113,286 z"/>
<path class="pen0 brush2" d="M 334,215  L 334,215 334,214 330,215 326,215 322,215 316,215 307,215 296,214 282,214 256,214 229,215 227,214 227,214 227,216 227,218 227,222 227,225 227,230 227,236 227,243 227,256 227,270 227,272 227,273 228,273 230,274 234,274 238,274 242,274 248,274 256,274 267,274 281,274 307,273 333,272 333,272 334,272 335,272 335,271 335,269 335,265 335,262 335,257 335,251 335,244 335,230 334,215 z"/>
<text class="font2" fill="rgb(0,0,0)" stroke="none" style="dominant-baseline: text-before-edge;" x="251 261 266 272 279 285" xml:space="preserve" y="223">WebApp</text>
<path class="pen0 brush2" d="M 330,221  L 329,221 329,220 329,219 329,219 329,219 328,219 326,219 322,220 321,220 321,220 321,220 321,221 321,223 320,227 319,233 321,234 322,235 323,235 325,235 327,236 329,234 330,233 330,232 330,230 330,227 330,221 z"/>
<path class="pen0 brush2" d="M 323,222  L 323,222 323,222 321,222 321,222 319,222 318,222 318,222 318,222 318,221 318,221 317,223 318,224 318,225 318,226 319,226 319,226 320,225 322,224 323,224 323,224 323,224 323,222 z"/>
<path class="pen0 brush2" d="M 323,230  L 322,228 322,228 323,228 322,228 320,228 317,228 318,228 318,228 318,228 318,228 318,229 317,230 316,232 318,232 318,232 318,232 319,232 321,233 323,232 324,231 324,231 323,230 z"/>
<path class="pen0 brush2" d="M 553,214  L 553,213 553,213 552,212 548,213 544,213 540,213 534,213 525,213 514,212 500,212 474,212 448,212 446,214 445,215 444,216 444,218 444,222 444,225 444,229 445,235 445,242 445,255 446,269 446,271 447,271 449,272 453,272 457,272 461,272 467,272 475,272 486,272 500,272 526,272 552,273 553,272 554,272 555,271 555,270 555,268 555,264 555,260 555,256 554,250 554,242 554,228 553,214 z"/>
<text class="font2" fill="rgb(0,0,0)" stroke="none" style="dominant-baseline: text-before-edge;" x="467 475 481 485 491 497 503 507" xml:space="preserve" y="222">Database</text>
<path class="pen0 brush2" d="M 549,221  L 548,219 546,217 545,217 543,218 540,219 540,218 539,218 538,219 538,220 538,221 538,223 538,227 538,233 538,233 539,233 540,235 540,235 541,235 544,234 548,233 548,234 548,234 548,232 548,231 548,230 548,226 549,221 z"/>
<path class="pen0 brush2" d="M 541,221  L 542,221 542,221 541,221 540,221 539,221 536,220 536,221 536,221 537,220 537,220 537,221 537,223 537,224 537,224 537,225 538,225 539,224 542,223 541,224 542,224 542,224 542,223 541,221 z"/>
<path class="pen0 brush2" d="M 542,227  L 541,227 541,227 540,228 540,228 539,227 537,226 536,227 535,229 535,229 536,231 537,231 537,230 537,230 538,231 540,232 541,230 542,230 543,231 543,231 543,229 542,227 z"/>
<path class="pen0 brush2" d="M 437,89  L 437,87 437,87 437,88 433,87 429,87 425,87 419,87 410,87 399,88 385,88 359,88 332,88 330,88 330,88 330,90 330,94 330,98 330,102 330,108 330,116 330,130 329,145 330,145 332,145 336,146 340,146 344,146 350,146 359,146 370,146 384,146 410,146 437,147 438,146 437,143 437,141 437,137 437,134 437,129 437,123 437,116 437,103 437,89 z"/>
<text class="font2" fill="rgb(0,0,0)" stroke="none" style="dominant-baseline: text-before-edge;" x="353 359 363 369 375 379 385" xml:space="preserve" y="96">CronJob</text>
<path class="pen0 brush2" d="M 432,94  L 432,92 431,91 430,91 429,92 426,93 424,93 423,95 423,95 423,97 423,100 424,105 424,107 424,107 426,108 427,108 429,108 431,108 432,108 432,108 432,107 432,107 432,106 432,104 432,101 432,94 z"/>
<path class="pen0 brush2" d="M 427,95  L 427,95 426,94 425,94 426,94 425,94 424,94 421,94 421,94 421,95 420,95 421,95 421,95 419,96 421,98 422,99 423,99 424,98 426,97 426,98 426,98 427,96 427,96 427,95 z"/>
<path class="pen0 brush2" d="M 426,102  L 426,101 426,101 425,101 426,102 425,102 424,102 421,101 421,101 420,102 420,102 421,103 421,104 421,104 421,104 422,104 423,104 425,104 425,104 426,104 427,103 427,103 427,103 426,102 z"/>
<path class="pen0 brush2" d="M 621,17  L 621,16 621,16 619,15 615,15 612,15 607,15 601,15 593,15 582,15 568,15 542,15 516,14 514,15 512,16 511,17 511,19 511,23 511,26 511,31 511,37 511,44 511,58 512,72 513,73 513,74 515,74 519,73 523,73 527,73 533,73 542,73 553,74 567,74 593,74 619,75 620,74 621,74 621,73 622,71 622,69 622,65 622,62 622,57 622,51 622,44 622,31 621,17 z"/>
<text class="font2" fill="rgb(0,0,0)" stroke="none" style="dominant-baseline: text-before-edge;" x="517 522 527 531 536 540 546 552 555 560 565 569 574 577 582" xml:space="preserve" y="24">ExternalService</text>
<path class="pen0 brush2" d="M 616,23  L 616,21 614,19 613,19 611,20 608,21 606,20 606,20 607,21 607,22 607,24 606,28 606,31 605,35 607,35 607,37 607,37 608,37 611,36 615,35 616,36 616,36 616,35 615,34 615,33 615,32 615,28 616,23 z"/>
<path class="pen0 brush2" d="M 610,22  L 610,23 609,22 608,22 607,22 607,22 605,22 603,22 604,22 604,22 604,23 604,24 604,26 604,26 604,26 604,26 604,26 605,26 607,26 609,27 609,27 609,26 610,25 610,25 610,24 610,22 z"/>
<path class="pen0 brush2" d="M 608,29  L 608,29 608,28 608,28 607,28 605,28 604,29 604,29 604,29 602,31 603,33 603,34 604,34 605,33 608,32 608,32 608,32 610,31 610,31 608,29 z"/>
<polyline class="pen0" fill="none" points="511,45 509,45 506,45 503,45 499,45 494,45 487,45"/>
<path class="pen0 brush3" d="M 486,44  L 486,41 484,40 480,38 477,38 475,40 474,44 474,47 475,49 477,50 479,49 481,50 483,49 484,47 485,44 485,44 486,44 z"/>
<text class="font3" fill="rgb(0,0,0)" stroke="none" style="dominant-baseline: text-before-edge;" x="429 438 443 448 453 458 462 467 470 474 479 482 488 494" xml:space="preserve" y="23">WebService API</text>
<path class="pen0 brush2" d="M 146,113  L 146,111 146,111 146,110 145,109 141,108 137,108 133,108 127,108 118,108 107,109 93,109 67,109 41,109 38,110 36,112 36,114 36,118 36,121 36,126 36,132 36,139 36,152 37,166 37,168 38,168 39,168 43,167 47,167 51,167 58,167 66,167 78,168 92,168 118,168 145,169 145,168 145,168 145,166 145,162 145,159 145,154 145,148 145,141 145,127 146,113 z"/>
<text class="font2" fill="rgb(0,0,0)" stroke="none" style="dominant-baseline: text-before-edge;" x="56 65 71 77 80 83 88 95 101" xml:space="preserve" y="119">MobileApp</text>
<path class="pen0 brush2" d="M 142,118  L 141,116 140,116 140,116 138,116 138,116 136,116 134,115 133,116 131,118 131,119 131,121 131,124 130,129 130,129 131,130 132,131 133,130 134,130 135,131 138,132 139,131 140,130 140,129 140,127 141,124 142,118 z"/>
<path class="pen0 brush2" d="M 133,119  L 134,118 134,118 134,118 134,118 132,117 130,116 128,118 129,118 129,118 129,119 129,121 128,120 128,120 128,122 129,122 130,122 132,122 133,121 133,121 133,119 133,119 z"/>
<path class="pen0 brush2" d="M 135,126  L 135,125 134,125 132,125 132,125 130,125 128,125 128,124 129,125 129,125 129,124 129,124 128,125 127,127 129,127 130,129 130,129 132,129 134,128 135,128 135,128 135,126 z"/>
<polyline class="pen0" fill="none" points="126,285 127,285 130,284 132,284 135,283 140,282 145,280 155,278 166,274"/>
<polyline class="pen0" fill="none" points="172,264 169,264 167,266 166,268 166,272 166,276 168,279 172,281 176,282 175,282 175,281 175,281 176,281"/>
<polyline class="pen0" fill="none" points="181,272 183,272 186,271 189,270 193,269 198,267 204,265 215,261 227,257"/>
<path class="pen0 brush1" d="M 182,273  L 181,270 179,268 177,266 176,265 173,266 171,268 169,273 168,274 170,276 172,277 176,278 180,276 180,275 180,272 180,272 182,273 z"/>
<polyline class="pen0" fill="none" points="471,212 471,212 470,211 468,209 465,205"/>
<polyline class="pen0" fill="none" points="461,202 461,202 460,201 459,199 456,195"/>
<polyline class="pen0" fill="none" points="452,191 451,190 449,188 446,185"/>
<polyline class="pen0" fill="none" points="441,179 440,178 439,176 436,173"/>
<polyline class="pen0" fill="none" points="433,169 433,169 432,168 430,166 426,163"/>
<polyline class="pen0" fill="none" points="422,158 422,158 421,157 418,154 414,150"/>
<polyline class="pen0" fill="none" points="471,214 470,214 468,213 465,210 458,205"/>
<polyline class="pen0" fill="none" points="471,214 471,213 470,211 468,206 466,202 464,198"/>
<polyline class="pen0" fill="none" points="444,242 444,242 443,242 441,242 437,243"/>
<polyline class="pen0" fill="none" points="433,242 432,242 430,242 427,243"/>
<polyline class="pen0" fill="none" points="422,244 421,244 419,244 416,243"/>
<polyline class="pen0" fill="none" points="413,243 413,243 412,243 410,243 406,242"/>
<polyline class="pen0" fill="none" points="402,244 402,244 401,244 398,244 393,243"/>
<polyline class="pen0" fill="none" points="389,243 388,243 387,243 384,244"/>
<polyline class="pen0" fill="none" points="379,242 379,242 378,242 376,242 372,243"/>
<polyline class="pen0" fill="none" points="368,243 368,243 367,243 365,243 361,244"/>
<polyline class="pen0" fill="none" points="356,242 355,242 354,242 351,243"/>
<polyline class="pen0" fill="none" points="345,244 344,244 343,244 340,244"/>
<polyline class="pen0" fill="none" points="446,242 445,242 443,243 439,245 435,247 431,249"/>
<polyline class="pen0" fill="none" points="444,243 443,243 441,242 438,240 431,237"/>
<polyline class="pen0" fill="none" points="472,47 472,47 471,48 469,50 465,52"/>
<polyline class="pen0" fill="none" points="461,56 460,57 459,59 456,62"/>
<polyline class="pen0" fill="none" points="452,64 452,64 451,65 448,67 443,71"/>
<polyline class="pen0" fill="none" points="439,74 438,75 437,76 434,78"/>
<polyline class="pen0" fill="none" points="429,82 429,82 428,83 426,84 422,86"/>
<polyline class="pen0" fill="none" points="473,48 472,49 471,51 468,55 466,58 463,62"/>
<polyline class="pen0" fill="none" points="474,47 473,47 470,48 465,50 462,51 457,52"/>
<polyline class="pen0" fill="none" points="146,170 147,170 149,171 153,174 157,176 161,178 169,182 177,186"/>
<polyline class="pen0" fill="none" points="191,181 189,181 187,181 186,181 186,182 182,182 179,184 177,187 176,192 177,195 179,197 181,199"/>
<polyline class="pen0" fill="none" points="192,193 193,193 196,195 200,198 204,200 208,203 216,208 225,214"/>
<path class="pen0 brush1" d="M 191,191  L 190,186 188,184 185,184 180,186 179,187 179,190 180,193 181,195 186,197 188,196 190,195 193,190 193,190 191,191 z"/>
</g>
</svg>
